<svg id="Layer_1" data-name="Layer 1" xmlns="http://www.w3.org/2000/svg" viewBox="0 0 394 451.96"><defs><style>.cls-1,.cls-3{fill:#fff;}.cls-1,.cls-2{stroke:#000;stroke-linecap:round;stroke-linejoin:round;stroke-width:10px;}</style></defs><polygon class="cls-1" points="341.95 5 221.12 106.53 349.16 162.66 341.95 5"/><polygon class="cls-1" points="27.74 31.61 21.42 189.31 149.14 132.46 27.74 31.61"/><ellipse class="cls-1" cx="197" cy="261.46" rx="192" ry="185.5"/><polygon class="cls-1" points="192 303.96 235.3 228.96 148.7 228.96 192 303.96"/><polyline class="cls-1" points="230.5 428.46 188.5 363.46 192 303.96 188.5 363.46 130.5 429.46"/><ellipse class="cls-1" cx="112" cy="185.46" rx="26" ry="24.5"/><ellipse class="cls-1" cx="280" cy="190.96" rx="29" ry="25"/><ellipse class="cls-2" cx="271.5" cy="202.96" rx="6.5" ry="7"/><ellipse class="cls-2" cx="118.5" cy="194.46" rx="7.5" ry="5.5"/><path d="M682.51,197.25l1.39.54-.41-.17.69.3c.9.41,1.79.84,2.67,1.3a49.29,49.29,0,0,1,4.8,2.85c.83.55,1.63,1.13,2.43,1.72,1.08.79-1.06-.87,0,0l1.15.94a54.18,54.18,0,0,1,4.21,3.95c.64.67,1.27,1.36,1.88,2.07l1,1.14.46.58c.39.5.31.39-.25-.33a11.19,11.19,0,0,0,1.53,2.11c.56.82,1.1,1.66,1.61,2.51a50.51,50.51,0,0,1,2.64,4.92,6.34,6.34,0,0,0,.61,1.35c-.36-.86-.42-1-.17-.4l.27.69c.36.93.69,1.86,1,2.81,1,3,4.2,5.22,7.38,4.19,3-1,5.24-4.19,4.19-7.38a59.94,59.94,0,0,0-25.06-32,59,59,0,0,0-10.76-5.22c-3-1.11-6.71,1.23-7.38,4.19-.78,3.41,1,6.19,4.19,7.38Z" transform="translate(-387 -54.04)"/><path d="M471,180.2a53.55,53.55,0,0,0-25,34.25c-.67,3.05.91,6.63,4.19,7.38,3,.69,6.66-.91,7.38-4.19a45.43,45.43,0,0,1,1.25-4.61c.25-.79.53-1.57.83-2.34a4.29,4.29,0,0,0,.43-1.06l-.3.73c.1-.24.2-.47.31-.7a48,48,0,0,1,4.69-8.09c.23-.31.46-.61.68-.92s-.85,1.07,0,0c.52-.65,1.05-1.28,1.61-1.89a45,45,0,0,1,3.22-3.26c.56-.52,1.14-1,1.72-1.51a10,10,0,0,0,.89-.73q-1.06.82-.3.24l.3-.23a49.34,49.34,0,0,1,4.15-2.72,6,6,0,1,0-6-10.36Z" transform="translate(-387 -54.04)"/><path class="cls-3" d="M481.11,280.6a65,65,0,0,0-15.57,23.47c-2.61,6.78-3.83,15.1.67,20.81,5.18,6.58,6.45,3.9,14.79,3.12,1-.1,6.36-2.19,7-3,.52-.65,5-3,7-8,1.34-3.35-4.87-23.9-13.5-36.5" transform="translate(-387 -54.04)"/><path d="M479,278.48a68.57,68.57,0,0,0-11,13.81,58,58,0,0,0-6.76,15.43c-1.37,5.43-1.58,11.35,1,16.46,1.83,3.65,5.36,7.56,9.65,8a17.18,17.18,0,0,0,4.84-.5c2.09-.39,3.65-.35,5.69-.9a31,31,0,0,0,5.41-2.13,10,10,0,0,0,1.86-1.12,5.51,5.51,0,0,0,.57-.5c.13-.14.5-.51-.25.18.11-.1.26-.19.38-.28,3.17-2.35,6.8-5.56,7.66-9.61.62-2.92-.35-6.26-1.07-9.07a102.78,102.78,0,0,0-5-14.47A85.17,85.17,0,0,0,484.09,279a3.07,3.07,0,0,0-4.1-1.08,3,3,0,0,0-1.08,4.1A89.14,89.14,0,0,1,490,305.67c.54,1.72,1,3.45,1.46,5.2.17.71.32,1.43.46,2.15.06.32.11.65.17,1s.08.72,0-.11l.06.55a10.11,10.11,0,0,1,.07,1.34s0,.56,0,.57c-.55-.22.4-.87,0-.22a18.16,18.16,0,0,1-3.21,4.29c-.27.25-.54.48-.82.71,0,0-.65.52-.26.22s-.18.14-.21.16c-.53.39-1.09.77-1.59,1.21s.19,0,.17-.07a5.58,5.58,0,0,1-.61.38c-.35.2-.71.37-1.08.54l-.49.23a2,2,0,0,1-.33.14c-.73.3-1.48.59-2.24.84-.25.08-.51.14-.76.23s-.47.28,0,0c.42-.05.39-.05-.1,0l-.55.06c-2,.23-4,.61-5.94.95l-.46.08c-.72.15.5,0,0,0-.3,0-.6.06-.9.07s-1.08-.05-.54,0-.42-.13-.59-.17c-.37-.08.63.39.1,0-.11-.08-.25-.13-.36-.2s-.24-.16-.37-.23c-.62-.33.31.27,0,0a17.09,17.09,0,0,1-2-2c-2.78-3.28-3.24-7.49-2.58-11.61.87-5.52,3.28-10.79,6.06-15.59a62.45,62.45,0,0,1,10.73-13.7c2.78-2.69-1.47-6.93-4.25-4.24Z" transform="translate(-387 -54.04)"/></svg>