<svg version="1.1" id="Layer_1" xmlns="http://www.w3.org/2000/svg" x="0" y="0" viewBox="0 0 375 575" style="enable-background:new 0 0 375 575" xml:space="preserve"><style>.st0{fill:#fff}</style><path class="st0" d="M349.6 278.3h-2v-61.7c0-88.3-71.9-160.2-160.2-160.2-88.3 0-160.2 71.9-160.2 160.2v61.7h-2v-61.7c0-89.4 72.7-162.1 162.1-162.1 89.4 0 162.1 72.7 162.1 162.1v61.7h.2zM187.4 520.2c-89.4 0-162.1-72.7-162.1-162.1v-61.7h2v61.7c0 88.3 71.9 160.2 160.2 160.2 88.3 0 160.2-71.9 160.2-160.2v-61.7h2v61.7c-.1 89.4-72.9 162.1-162.3 162.1z"/><path class="st0" d="M61 309.3h-1.9v-73.8H61v73.8zM315.8 309.3h-2v-73.8h2v73.8z"/><path class="st0" d="M315.8 309.3h-2v-73.8h2v73.8zM73.4 207.1l.5-2.7v-.1l-15.7-8.2 17.4-2.9v-.1l.5-2.7-20.9-11.3-.6-.4-.6 3.6 16.1 8.5-17.9 2.9-.4 2.7 16.1 8.3-17.9 3.2-.6 3.6 24-4.4zM80.2 176.4l7.1-15.3v-.1l-2.9-1.3h-.1l-5.6 12.2-6.1-2.7 5-10.8v-.1l-2.9-1.3-5 10.8-5.9-2.7 5.5-12.1h.1l-2.9-1.4h-.1l-7 15.2v.1l20.8 9.5zM77.5 145.1c3.4 2.5 6.5 1 10.1-2.1 3.4-3 4.8-3.1 6.1-2 .8.6 1.2 1.4 1.2 2.3 0 1-.4 2.1-1.2 3.2-1.6 2.2-3.6 3.4-6.7 4l-.5.1.8 3.2v.1l.5-.1c3.6-.8 6.3-2.4 8.4-5.3 1.4-1.8 2-3.8 1.9-5.6-.1-1.9-1-3.6-2.6-4.8-2.8-2.1-5.8-1.5-9.8 2-3.6 3.2-5 3.2-6.4 2.2-.7-.5-1.1-1.3-1.1-2.1 0-1 .3-2 1.1-3 1.3-1.8 3-2.9 5.4-3.5l.4-.1h.1l-.9-3.2v-.1l-.5.1c-3 .8-5.1 2.2-7 4.8-1.3 1.7-1.9 3.6-1.8 5.5.2 1.7 1 3.3 2.5 4.4zM91.8 122.6l5.5-4.9 13 14.7 2.6-2.3-13-14.7 5.4-4.8h.1l-2.1-2.4-.1-.1-13.5 12.1h-.1l2.2 2.4zM150.1 104.9c1.2-2.8 1.3-5.9.1-8.8-1.2-3-3.4-5.2-6.3-6.3-2.8-1.1-6.1-1-9.3.3l-7.4 3h-.1l8.6 21.1v.1l7.5-3c3.2-1.3 5.6-3.6 6.9-6.4zm-12.4 5.1-6.1-15.2 4.3-1.7c4.7-1.9 9.2-.1 11 4.4 1.8 4.4-.2 8.9-4.9 10.8l-4.3 1.7zM178.2 99.2l-13.4 2.1-1-6.6 11.7-1.9h.1l-.5-3.1v-.1l-11.8 1.9-1-6.4 13.2-2.1-.5-3.1v-.1l-16.6 2.6 3.5 22.5v.1l16.8-2.6-.5-3.2zM202.5 96.6c.2-3.5-1.9-5.7-7.1-7.1-4.6-1.3-5.4-2.4-5.3-4.1 0-.8.5-1.6 1.2-2.1s1.7-.8 2.7-.8h.4c2.2.1 4.1.9 5.9 2.6l.4.3 2.1-2.5-.4-.3c-2.3-2.1-4.7-3.1-7.8-3.2h-.5c-4.2 0-7.3 2.5-7.5 6.1-.2 4.3 2.8 6 7.4 7.2 4.4 1.2 5.2 2.3 5.1 4 0 .9-.5 1.7-1.3 2.3-.7.5-1.7.8-2.9.8h-.4c-2.8-.1-4.8-1.1-7-3.3l-.5-.5-2.3 2.4.3.3c2.6 2.6 5.5 3.9 9.1 4.1h.6c4.5.1 7.6-2.4 7.8-6.2zM234.6 106l.6.3 10.8-6.9-6.5 15.2v.1l3.1 1.3 9.1-20.9-3-1.3-11.7 7.5-2.5-13.6-2.9-1.3-9.1 20.9 3 1.4h.1l6.6-15.3 2.4 12.6zM258 127.3c2.1 1.7 4.6 2.6 7.2 2.6.5 0 1.1 0 1.6-.1 3-.4 5.7-2 7.7-4.5 1.9-2.5 2.9-5.5 2.6-8.5-.3-3.1-1.8-6-4.4-8-2.1-1.7-4.6-2.6-7.2-2.6-.5 0-.9 0-1.4.1-3.1.4-5.9 2-7.9 4.5s-2.9 5.6-2.6 8.7c.3 3.1 1.9 5.8 4.4 7.8zm1-14.3c1.7-2.2 4.2-3.4 6.7-3.4 1.8 0 3.5.6 4.9 1.7 1.8 1.4 2.8 3.4 3 5.6.2 2.2-.5 4.4-2 6.2-1.4 1.8-3.4 3-5.5 3.3l-1.2.1c-1.8 0-3.5-.6-4.9-1.8-3.6-2.8-4-7.8-1-11.7zM272.6 140.5l2.2 2.6v.1l17-14.7.3-.3-2.2-2.6-16.9 14.6-.4.3zM280.7 150.1l1.8 2.9 14.6-8.7-7.7 20-.1.2 1.4 2.3 19.6-11.6-1.7-2.9-14.3 8.4 7.6-19.6v-.1l-1.5-2.6-19.6 11.7h-.1zM294 174.9l5.1 16.1h.1l3-.9v-.1l-4-12.8 6.3-2 3.6 11.3 3-.9h.1l-3.6-11.4 6.2-2 4 12.7v.1l3-1h.1l-5-16h-.1l-21.7 6.8-.1.1zM317 196.3c-4.3.4-5.5 3.6-6.1 8.3-.5 4.6-1.5 5.5-3.2 5.6h-.3c-1.8 0-3.2-1.6-3.4-4.1-.3-2.8.4-4.9 2.3-7.4l.3-.4-2.7-1.9-.3.4c-2.2 3-3.1 6-2.7 9.6.4 4.4 3.1 7.3 6.8 7.3h.6c3.5-.3 5.3-2.8 6-8.1.6-4.8 1.5-5.7 3.3-5.9h.2c1.7 0 3 1.6 3.3 3.9.2 2.2-.3 4.2-1.7 6.2l-.3.4 2.9 1.8.3-.4c1.7-2.6 2.3-5.1 2-8.2-.2-2.4-1.2-4.4-2.8-5.7-1.3-1.1-2.9-1.6-4.5-1.4zM72.4 351h-9.7v-11.6h9.7v-3.5H49.6v3.5h9.8V351h-9.8v3.5h22.8V351zM72.8 367.7l-.2-3.4v-.1l-22.8 1.6.2 3.3v.1l22.7-1.5h.1zM66.1 387.2c-.1-4.8.8-5.9 2.5-6.3.8-.2 1.6 0 2.3.6.8.6 1.3 1.6 1.6 2.8.5 2.1.2 4.2-.9 6.4l-.2.5 3.1 1.4.2-.4c1.4-2.8 1.6-5.3.9-8.4-.5-2.1-1.5-3.8-3-4.9-1.5-1.1-3.3-1.5-5.1-1.1-4.2 1-5 4.3-4.9 9.1.1 4.6-.8 5.6-2.4 6-.9.2-1.8 0-2.5-.6-.8-.6-1.4-1.7-1.6-2.9-.6-2.7-.3-4.9 1.3-7.7l.2-.4-2.9-1.5h-.1l-.2.4c-1.8 3.3-2.2 6.4-1.5 9.9.5 2.2 1.6 4 3 5.1 1.1.9 2.4 1.3 3.8 1.3.5 0 1-.1 1.5-.2 3.5-1.1 4.9-3.7 4.9-9.1zM83.8 415.9h.1l2.9-1.3v-.1l-7.6-16.4v-.1l-2.9 1.4h-.1l3.1 6.7-17.3 8-.5.2 1.4 3.1.1.1 17.8-8.3 3 6.7zM99.6 437.6c.5-3.1-.4-6.2-2.4-8.8-2-2.6-4.9-4.2-8-4.4l-1.1-.1c-2.7 0-5.3.9-7.4 2.6-2.5 1.9-4.1 4.6-4.5 7.6-.5 3.1.4 6.2 2.4 8.8 2 2.6 4.9 4.2 8 4.4l1.1.1c2.7 0 5.3-.9 7.4-2.6 2.5-2 4.1-4.7 4.5-7.6zm-16.7-8c1.6-1.3 3.6-2 5.5-2h.7c2.2.2 4.1 1.3 5.5 3 2.9 3.6 2.1 8.7-1.7 11.7s-8.8 2.5-11.7-1.1c-1.4-1.8-2-4-1.6-6.1.3-2.1 1.5-4 3.3-5.5zM117.5 449.4l-7.7-6.1-14.1 17.9 2.7 2.1 5.3-6.7 4.3 3.4-.3 10.6 3.3 2.6.1.1.2-11.4c3.3 1.5 6.5.8 8.5-1.8 2.6-3.4 1.7-7.6-2.3-10.7zm-2.2 2.4c2.6 2 3.1 4.3 1.6 6.2-1.5 1.9-4.1 1.9-6.5 0l-4.9-3.8 4.9-6.2 4.9 3.8zM131.3 458.5l-10.7 19.7-.2.3v.1l3 1.6 10.7-19.6.2-.4v-.1l-3-1.6zM152.6 467.3c-3.1-1-6.2-.8-9 .7-2.7 1.4-4.7 3.9-5.7 6.9-1 3-.9 6.2.4 9s3.7 4.9 6.7 5.9c1.4.5 2.7.7 4 .7 2.5 0 4.4-.8 5.9-1.6l.4-.2-1.4-2.8-.4.2c-2.4 1.1-4.5 1.7-7.3.7-4.3-1.4-6.4-6-4.8-10.7.7-2.2 2.2-4 4.1-5 1.9-1 4.1-1.2 6.2-.5 2.3.8 3.9 2.2 5.3 4.8l.2.4 3-1.6h.1l-.2-.4c-1.5-2.6-3.3-5-7.5-6.5zM178.9 472.7l-2.9-.3-12.3 21.9v.1l3.6.3 3.1-5.5 11.2 1 2 5.9 3.6.3h.1L179 473l-.1-.3zm1.5 14.2-8.4-.7 5.1-9.1 3.3 9.8zM201.8 492l-2.6-19.4-3.4.4 3 22.7 15.6-2.1-.4-3.2-12.2 1.6zM242.8 469.9c-4.7 1.2-5.9.6-6.7-1-.4-.8-.4-1.6 0-2.4.4-.9 1.2-1.6 2.4-2.2 2-1 4-1.2 6.4-.6l.5.1.6-3.2v-.1l-.5-.1c-3.1-.7-5.6-.4-8.4 1-4 1.9-5.7 5.8-4.1 9.2 1.9 3.8 5.3 3.9 9.9 2.8 4.5-1.1 5.6-.5 6.4 1 .9 1.8-.2 3.7-2.5 4.9-2.5 1.2-4.7 1.3-7.8.5l-.5-.1-.8 3.2v.1l.5.1c1.4.4 2.8.6 4.1.6 2 0 3.9-.5 5.8-1.4 2-1 3.5-2.4 4.3-4.1.8-1.8.8-3.6-.1-5.4-1.4-3.3-4.3-4.1-9.5-2.9zM259.7 447c-2.5 2.1-4.1 4.9-4.3 8.1-.2 3 .7 6 2.7 8.5 2 2.4 4.7 4 7.7 4.4.5.1 1 .1 1.4.1 2.6 0 5.2-.9 7.3-2.7 2.5-2.1 4.1-5 4.3-8.1.2-3-.7-6-2.7-8.5-4.2-5.2-11.2-6-16.4-1.8zm15.8 10.2c-.1 2.2-1.2 4.2-2.9 5.6-1.8 1.4-3.9 2-6.1 1.8-2.2-.3-4.2-1.5-5.6-3.3-3.1-3.8-2.7-8.8.9-11.7 1.5-1.2 3.3-1.8 5-1.8 2.4 0 4.9 1.1 6.7 3.3 1.4 1.8 2.2 4 2 6.1zM301.1 429.7l-3.1.5h-.1l.1.5c.3 2.6.1 4.8-1.6 7.2-2.7 3.6-7.7 4.2-11.7 1.2-1.9-1.4-3.1-3.4-3.5-5.5-.4-2.1.2-4.3 1.5-6 1.5-2 3.3-3 6.2-3.5l.5-.1-.6-3.3v-.1l-.5.1c-2.7.5-5.5 1.4-8.2 4.9-1.9 2.6-2.7 5.7-2.2 8.7.5 3 2.2 5.7 4.7 7.6 2.2 1.6 4.7 2.5 7.3 2.5.4 0 .9 0 1.4-.1 3-.4 5.8-2 7.7-4.5 2.7-3.6 2.7-6.9 2.3-9.7l-.2-.4zM290.6 408.9l-1.6 3v.1l20.3 10.4h.1l1.5-3-20.2-10.4-.1-.1zM318.4 390.6l-4.1 12.8-6.4-2 3.7-11.3v-.1l-3-1h-.1l-3.6 11.4-6.2-2 4.1-12.7-3-1h-.1l-5.1 15.9v.1l21.3 6.8.4.2 5.2-16.1v-.1l-3-.9h-.1zM306 361.1v-.1l-3.2-.3-1.8 18v.1l3.1.3h.1l.7-7.3 19.5 1.9.4-3.4-19.5-2 .7-7.2zM316.3 342.6l-13.8-9.5-.1-.1v4.1l10.6 7.2-10.3 6.9-.3.2v4.2l13.9-9.6h9v-3.4h-9z"/><path class="st0" d="M144 289.8H81.5v-73.2c0-58.4 47.5-105.9 105.9-105.9 58.4 0 105.9 47.5 105.9 105.9v39.2h-4.9v-39.2c0-55.7-45.3-101-101-101s-101 45.3-101 101v68.3H144v4.9zM187.4 464C129 464 81.5 416.5 81.5 358.1v-39.2h4.9v39.2c0 55.7 45.3 101 101 101s101-45.3 101-101v-68.3h-57.6v-4.9h62.5v73.2c0 58.4-47.5 105.9-105.9 105.9zM37.5 279.3H8.9v-2h28.6v2zM37.5 297.4H8.9v-1.9h28.6v1.9zM366 279.3h-28.7v-2H366v2zM366 297.4h-28.7v-1.9H366v1.9z"/><path class="st0" d="M300.1 256.8h-18.4v-2h18.4v2zM93.2 319.6H74.8v-2h18.4v2zM348.2 130.2h-2V57.9h-72.4v-2h74.4v74.3z"/><path class="st0" d="M335.1 110.7h-2V70.9h-39.7V69h41.7v41.7zM28.7 130.2h-2V55.9H101v2H28.7v72.3z"/><path class="st0" d="M41.7 110.7h-1.9V69h41.7v1.9H41.7v39.8zM348.2 518.8h-74.4v-1.9h72.4v-72.4h2v74.3z"/><path class="st0" d="M335.1 505.8h-41.7v-2h39.7v-39.7h2v41.7zM101 518.8H26.7v-74.3h2v72.4H101v1.9z"/><path class="st0" d="M81.5 505.8H39.8v-41.7h1.9v39.7h39.8v2zM60.4 91 40 70.6l1.4-1.4 20.4 20.4-1.4 1.4zM314.4 91l-1.3-1.4 20.3-20.4 1.4 1.4L314.4 91zM333.4 505.5l-20.3-20.4 1.3-1.4 20.4 20.4-1.4 1.4z"/><path class="st0" d="m41.4 505.5-1.4-1.4 20.4-20.4 1.4 1.4-20.4 20.4zM169.5 305.7v4.9h22.1c4.8 0 7.8-3.2 7.8-8.2V278c0-5.1-3-8.2-7.8-8.2h-22.1v4.9h5.1v31h-5.1zm10.1-31h12.1c1.4 0 2.8.3 2.8 3.3v24.4c0 3-1.5 3.3-2.8 3.3h-12.1v-31z"/><path class="st0" d="M232.4 186.5v4.9H245l-.7 67.1c-10.4-12.9-37.1-46.3-54.2-68.8 3.6-4.8 6.8-9.1 9-12.3.6-.9 3.7-5.5 3.7-9.9 0-8.7-7.1-15.7-15.7-15.7h-.1c-8.7 0-15.7 7.1-15.7 15.7 0 4.4 3.1 9 3.7 9.9 2.3 3.2 5.4 7.5 9 12.3-17.1 22.5-43.8 55.9-54.2 68.8l-.7-67.1h12.5v-4.9h-30v4.9h12.6l.8 81 4.3-5.4c.4-.5 36.2-44.8 57.8-73.2 21.6 28.4 57.3 72.6 57.8 73.2l4.3 5.4.8-81h12.6v-4.9h-30.2zm-53.5-11.9c-1-1.4-2.8-4.6-2.8-7.1 0-5.9 4.8-10.8 10.8-10.8h.1c6 0 10.8 4.8 10.8 10.8 0 2.5-1.8 5.7-2.8 7.1-2.1 2.9-4.8 6.7-8.1 11-3.2-4.3-5.9-8-8-11zM249.1 302.4l-4.3 5.4c-.4.5-36.2 44.8-57.8 73.2-21.6-28.4-57.3-72.6-57.8-73.2l-4.3-5.4-.8 81h-12.6v4.9h30v-4.9H129l.7-67.1c10.4 12.9 37.1 46.3 54.2 68.8-3.6 4.8-6.8 9.1-9 12.3-.6.9-3.7 5.5-3.7 9.9 0 8.7 7.1 15.7 15.7 15.7h.1c8.7 0 15.7-7.1 15.7-15.7 0-4.4-3.1-9-3.7-9.9-2.3-3.2-5.4-7.5-9-12.3 17.1-22.5 43.8-55.9 54.2-68.8l.7 67.1h-12.5v4.9h30v-4.9h-12.6l-.7-81zM195 400.1c1 1.4 2.8 4.6 2.8 7.1 0 6-4.8 10.8-10.8 10.8h-.1c-5.9 0-10.8-4.8-10.8-10.8 0-2.4 1.8-5.7 2.8-7.1 2.1-3 4.8-6.7 8.1-11 3.2 4.3 6 8.1 8 11z"/><path class="st0" d="M189.7 509.5h-4.5c-82.7 0-149.9-67.2-149.9-149.9V215.1c0-82.7 67.2-149.9 149.9-149.9h4.5c82.7 0 149.9 67.2 149.9 149.9v144.5c0 82.7-67.3 149.9-149.9 149.9zM185.2 68c-81.1 0-147.1 66-147.1 147.1v144.5c0 81.1 66 147.1 147.1 147.1h4.5c81.1 0 147.1-66 147.1-147.1V215.1c0-81.1-66-147.1-147.1-147.1h-4.5z"/></svg>